<svg xmlns="http://www.w3.org/2000/svg" viewBox="0 0 64 64">
  <!-- Plate -->
  <ellipse cx="32" cy="52" rx="26" ry="4" fill="#D3D3D3"/>

  <!-- Cake slice triangle base -->
  <path d="M 32 52 L 12 52 L 32 12 Z" fill="#A0522D" stroke="#654321" stroke-width="1"/>

  <!-- Cake layers (side view) -->
  <path d="M 32 12 L 12 52 L 16 52 L 32 18 Z" fill="#8B4513"/>
  <path d="M 32 18 L 16 52 L 20 52 L 32 26 Z" fill="#A0522D"/>
  <path d="M 32 26 L 20 52 L 24 52 L 32 34 Z" fill="#8B4513"/>
  <path d="M 32 34 L 24 52 L 28 52 L 32 42 Z" fill="#A0522D"/>

  <!-- Frosting layers (pink) -->
  <path d="M 32 22 L 18 52 L 19 52 L 32 24 Z" fill="#FF69B4"/>
  <path d="M 32 30 L 22 52 L 23 52 L 32 32 Z" fill="#FF1493"/>
  <path d="M 32 38 L 26 52 L 27 52 L 32 40 Z" fill="#FF69B4"/>

  <!-- Top frosting -->
  <path d="M 32 12 L 32 18 L 16 52 L 12 52 Z" fill="#FF1493" stroke="#C71585" stroke-width="0.5"/>

  <!-- Front face of slice -->
  <path d="M 32 12 L 12 52 L 32 52 Z" fill="#F5DEB3" stroke="#A0522D" stroke-width="1.5"/>

  <!-- Chocolate layers on front -->
  <line x1="32" y1="22" x2="17" y2="52" stroke="#8B4513" stroke-width="2"/>
  <line x1="32" y1="30" x2="21" y2="52" stroke="#8B4513" stroke-width="2"/>
  <line x1="32" y1="38" x2="25" y2="52" stroke="#8B4513" stroke-width="2"/>
  <line x1="32" y1="45" x2="29" y2="52" stroke="#8B4513" stroke-width="2"/>

  <!-- Pink frosting stripes on front -->
  <line x1="32" y1="18" x2="15" y2="52" stroke="#FF69B4" stroke-width="1.5"/>
  <line x1="32" y1="26" x2="19" y2="52" stroke="#FF1493" stroke-width="1.5"/>
  <line x1="32" y1="34" x2="23" y2="52" stroke="#FF69B4" stroke-width="1.5"/>
  <line x1="32" y1="42" x2="27" y2="52" stroke="#FF1493" stroke-width="1.5"/>

  <!-- Top frosting edge -->
  <path d="M 32 12 L 12 52 L 14 52 L 32 15 Z" fill="#FFB6C1" opacity="0.6"/>

  <!-- Sprinkles on top -->
  <circle cx="28" cy="16" r="1" fill="#FF0000"/>
  <circle cx="24" cy="20" r="1" fill="#00FF00"/>
  <circle cx="20" cy="28" r="1" fill="#0000FF"/>
  <circle cx="18" cy="35" r="1" fill="#FFFF00"/>
  <circle cx="16" cy="42" r="1" fill="#FF00FF"/>
</svg>
